<svg width="217" height="42" viewBox="0 0 217 42" fill="none" xmlns="http://www.w3.org/2000/svg">
<path fill-rule="evenodd" clip-rule="evenodd" d="M126.806 12.0368C126.269 12.5264 125.558 12.7712 124.675 12.7712C123.792 12.7712 123.082 12.5264 122.544 12.0368C122.006 11.5472 121.738 10.9376 121.738 10.208C121.738 9.45923 122.006 8.84003 122.544 8.35043C123.082 7.86083 123.792 7.61603 124.675 7.61603C125.558 7.61603 126.269 7.86083 126.806 8.35043C127.344 8.84003 127.613 9.45923 127.613 10.208C127.613 10.9376 127.344 11.5472 126.806 12.0368ZM63.5904 27.0272V30.8H52.0992V10.4384H57.024V27.0272H63.5904ZM77.6592 30.008C76.4016 30.6704 74.976 31.0016 73.3824 31.0016C71.7888 31.0016 70.3584 30.6704 69.0912 30.008C67.824 29.3456 66.8304 28.3904 66.1104 27.1424C65.3904 25.8944 65.0304 24.4352 65.0304 22.7648C65.0304 21.0944 65.3904 19.6352 66.1104 18.3872C66.8304 17.1392 67.824 16.184 69.0912 15.5216C70.3584 14.8592 71.7888 14.528 73.3824 14.528C74.976 14.528 76.4016 14.8592 77.6592 15.5216C78.9168 16.184 79.9056 17.1392 80.6256 18.3872C81.3456 19.6352 81.7056 21.0944 81.7056 22.7648C81.7056 24.4352 81.3456 25.8944 80.6256 27.1424C79.9056 28.3904 78.9168 29.3456 77.6592 30.008ZM73.3824 26.7104C72.4416 26.7104 71.6496 26.3744 71.0064 25.7024C70.3632 25.0304 70.0416 24.0512 70.0416 22.7648C70.0416 21.4784 70.3632 20.4944 71.0064 19.8128C71.6496 19.1312 72.4416 18.7904 73.3824 18.7904C74.3232 18.7904 75.1104 19.1312 75.744 19.8128C76.3776 20.4944 76.6944 21.4784 76.6944 22.7648C76.6944 24.0512 76.3776 25.0304 75.744 25.7024C75.1104 26.3744 74.3232 26.7104 73.3824 26.7104ZM96.8832 37.6256C95.6928 38.336 94.2144 38.6912 92.448 38.6912C90.0288 38.6912 88.0944 38.12 86.6448 36.9776C85.1952 35.8352 84.3264 34.2848 84.0384 32.3264H88.9056C89.0592 32.9792 89.4096 33.488 89.9568 33.8528C90.504 34.2176 91.2192 34.4 92.1024 34.4C93.12 34.4 93.9408 34.1072 94.5648 33.5216C95.1888 32.936 95.5008 32 95.5008 30.7136V27.8912C95.0784 28.8512 94.4256 29.6096 93.5424 30.1664C92.6592 30.7232 91.6032 31.0016 90.3744 31.0016C89.0496 31.0016 87.864 30.6704 86.8176 30.008C85.7712 29.3456 84.9456 28.3904 84.3408 27.1424C83.736 25.8944 83.4336 24.4352 83.4336 22.7648C83.4336 21.0752 83.736 19.6112 84.3408 18.3728C84.9456 17.1344 85.7712 16.184 86.8176 15.5216C87.864 14.8592 89.0496 14.528 90.3744 14.528C91.6032 14.528 92.6592 14.8064 93.5424 15.3632C94.4256 15.92 95.0784 16.6784 95.5008 17.6384V14.7296H100.397V30.7136C100.397 32.2112 100.109 33.56 99.5328 34.76C98.9568 35.96 98.0736 36.9152 96.8832 37.6256ZM91.9584 26.6816C90.9024 26.6816 90.0528 26.336 89.4096 25.6448C88.7664 24.9536 88.4448 23.9936 88.4448 22.7648C88.4448 21.536 88.7664 20.576 89.4096 19.8848C90.0528 19.1936 90.9024 18.848 91.9584 18.848C92.9952 18.848 93.8448 19.1984 94.5072 19.8992C95.1696 20.6 95.5008 21.5552 95.5008 22.7648C95.5008 23.9552 95.1696 24.9056 94.5072 25.616C93.8448 26.3264 92.9952 26.6816 91.9584 26.6816ZM115.589 30.008C114.331 30.6704 112.906 31.0016 111.312 31.0016C109.718 31.0016 108.288 30.6704 107.021 30.008C105.754 29.3456 104.76 28.3904 104.04 27.1424C103.32 25.8944 102.96 24.4352 102.96 22.7648C102.96 21.0944 103.32 19.6352 104.04 18.3872C104.76 17.1392 105.754 16.184 107.021 15.5216C108.288 14.8592 109.718 14.528 111.312 14.528C112.906 14.528 114.331 14.8592 115.589 15.5216C116.846 16.184 117.835 17.1392 118.555 18.3872C119.275 19.6352 119.635 21.0944 119.635 22.7648C119.635 24.4352 119.275 25.8944 118.555 27.1424C117.835 28.3904 116.846 29.3456 115.589 30.008ZM111.312 26.7104C110.371 26.7104 109.579 26.3744 108.936 25.7024C108.293 25.0304 107.971 24.0512 107.971 22.7648C107.971 21.4784 108.293 20.4944 108.936 19.8128C109.579 19.1312 110.371 18.7904 111.312 18.7904C112.253 18.7904 113.04 19.1312 113.674 19.8128C114.307 20.4944 114.624 21.4784 114.624 22.7648C114.624 24.0512 114.307 25.0304 113.674 25.7024C113.04 26.3744 112.253 26.7104 111.312 26.7104ZM127.123 14.7296H122.198V30.8H127.123V14.7296ZM135.446 27.8912V38.4608H130.522V14.7296H135.446V17.6384C135.85 16.6784 136.493 15.92 137.376 15.3632C138.259 14.8064 139.315 14.528 140.544 14.528C141.869 14.528 143.054 14.8592 144.101 15.5216C145.147 16.184 145.973 17.1344 146.578 18.3728C147.182 19.6112 147.485 21.0752 147.485 22.7648C147.485 24.4352 147.182 25.8944 146.578 27.1424C145.973 28.3904 145.147 29.3456 144.101 30.008C143.054 30.6704 141.869 31.0016 140.544 31.0016C139.315 31.0016 138.259 30.7232 137.376 30.1664C136.493 29.6096 135.85 28.8512 135.446 27.8912ZM138.96 26.6816C137.923 26.6816 137.074 26.3264 136.411 25.616C135.749 24.9056 135.418 23.9552 135.418 22.7648C135.418 21.5552 135.749 20.6 136.411 19.8992C137.074 19.1984 137.923 18.848 138.96 18.848C140.016 18.848 140.866 19.1936 141.509 19.8848C142.152 20.576 142.474 21.536 142.474 22.7648C142.474 23.9936 142.152 24.9536 141.509 25.6448C140.866 26.336 140.016 26.6816 138.96 26.6816ZM160.387 30.3968C159.446 30.8 158.333 31.0016 157.046 31.0016C154.877 31.0016 153.139 30.5216 151.834 29.5616C150.528 28.6016 149.731 27.2288 149.443 25.4432H154.195C154.272 26.1344 154.565 26.6624 155.074 27.0272C155.582 27.392 156.24 27.5744 157.046 27.5744C157.603 27.5744 158.026 27.4448 158.314 27.1856C158.602 26.9264 158.746 26.5856 158.746 26.1632C158.746 25.6064 158.482 25.208 157.954 24.968C157.426 24.728 156.566 24.4736 155.376 24.2048C154.186 23.9552 153.206 23.6864 152.438 23.3984C151.67 23.1104 151.008 22.6448 150.451 22.0016C149.894 21.3584 149.616 20.48 149.616 19.3664C149.616 17.9264 150.163 16.76 151.258 15.8672C152.352 14.9744 153.898 14.528 155.894 14.528C157.93 14.528 159.557 15.0368 160.776 16.0544C161.995 17.072 162.758 18.416 163.066 20.0864H158.458C158.323 19.4336 158.021 18.92 157.55 18.5456C157.08 18.1712 156.49 17.984 155.779 17.984C155.222 17.984 154.8 18.104 154.512 18.344C154.224 18.584 154.08 18.9248 154.08 19.3664C154.08 19.8656 154.344 20.24 154.872 20.4896C155.4 20.7392 156.23 20.9888 157.363 21.2384C158.592 21.5264 159.6 21.8192 160.387 22.1168C161.174 22.4144 161.856 22.8992 162.432 23.5712C163.008 24.2432 163.296 25.1456 163.296 26.2784C163.296 27.2 163.046 28.016 162.547 28.7264C162.048 29.4368 161.328 29.9936 160.387 30.3968ZM171.821 30.9728C173.03 30.9728 174.091 30.6944 175.003 30.1376C175.915 29.5808 176.602 28.832 177.062 27.8912V30.8H182.016V14.7296H177.062V23.2544C177.062 24.4256 176.774 25.328 176.198 25.9616C175.622 26.5952 174.835 26.912 173.837 26.912C172.877 26.912 172.114 26.6096 171.547 26.0048C170.981 25.4 170.698 24.5504 170.698 23.456V14.7296H165.802V24.0608C165.802 26.2112 166.344 27.9008 167.429 29.1296C168.514 30.3584 169.978 30.9728 171.821 30.9728ZM190.339 22.2752V30.8H185.414V14.7296H190.339V17.4656C190.762 16.5632 191.41 15.8528 192.283 15.3344C193.157 14.816 194.179 14.5568 195.35 14.5568C196.579 14.5568 197.664 14.84 198.605 15.4064C199.546 15.9728 200.256 16.784 200.736 17.84C201.293 16.8416 202.056 16.0448 203.026 15.4496C203.995 14.8544 205.066 14.5568 206.237 14.5568C208.214 14.5568 209.77 15.1664 210.902 16.3856C212.035 17.6048 212.602 19.2992 212.602 21.4688V30.8H207.706V22.0448C207.706 21.0272 207.432 20.2352 206.885 19.6688C206.338 19.1024 205.594 18.8192 204.653 18.8192C203.674 18.8192 202.901 19.1216 202.334 19.7264C201.768 20.3312 201.485 21.1808 201.485 22.2752V30.8H196.56V22.0448C196.56 21.0272 196.291 20.2352 195.754 19.6688C195.216 19.1024 194.477 18.8192 193.536 18.8192C192.557 18.8192 191.779 19.1168 191.203 19.712C190.627 20.3072 190.339 21.1616 190.339 22.2752Z" fill="#D8D8D8"/>
<circle cx="214.4" cy="12.8" r="2.4" fill="white"/>
<path fill-rule="evenodd" clip-rule="evenodd" d="M27.2 28C34.7111 28 40.8 21.732 40.8 14C40.8 6.26801 34.7111 0 27.2 0C19.8189 0 13.8111 6.05299 13.6054 13.6C13.6036 13.6 13.6018 13.6 13.6 13.6C6.08893 13.6 0 19.868 0 27.6C0 35.332 6.08893 41.6 13.6 41.6C20.9811 41.6 26.9889 35.547 27.1946 28C27.1964 28 27.1982 28 27.2 28ZM13.6 14C13.6 21.7301 19.686 27.997 27.1946 28C27.1982 27.8671 27.2 27.7338 27.2 27.6C27.2 19.8699 21.114 13.603 13.6054 13.6C13.6018 13.7329 13.6 13.8662 13.6 14Z" fill="#D8D8D8"/>
</svg>
