<svg width="190" height="35" viewBox="0 0 190 35" fill="none" xmlns="http://www.w3.org/2000/svg">
<path fill-rule="evenodd" clip-rule="evenodd" d="M113.171 5.54401V9.63361H108.477V5.54401H113.171ZM53.296 23.3424V27H39.6448V6.49441H44.1376V23.3424H53.296ZM66.6016 26.3088C65.4496 26.9232 64.1056 27.2304 62.5696 27.2304C60.9952 27.2304 59.632 26.9232 58.48 26.3088C57.328 25.6944 56.44 24.816 55.816 23.6736C55.192 22.5312 54.88 21.1824 54.88 19.6272C54.88 18.072 55.192 16.728 55.816 15.5952C56.44 14.4624 57.328 13.584 58.48 12.96C59.632 12.336 60.9952 12.024 62.5696 12.024C64.1056 12.024 65.4496 12.336 66.6016 12.96C67.7536 13.584 68.6416 14.4624 69.2656 15.5952C69.8896 16.728 70.2016 18.072 70.2016 19.6272C70.2016 21.1824 69.8896 22.5312 69.2656 23.6736C68.6416 24.816 67.7536 25.6944 66.6016 26.3088ZM62.5696 23.9184C61.4752 23.9184 60.64 23.568 60.064 22.8672C59.488 22.1664 59.2 21.0864 59.2 19.6272C59.2 18.1872 59.4928 17.1168 60.0784 16.416C60.664 15.7152 61.4944 15.3648 62.5696 15.3648C63.6256 15.3648 64.4416 15.7152 65.0176 16.416C65.5936 17.1168 65.8816 18.1872 65.8816 19.6272C65.8816 21.0864 65.5936 22.1664 65.0176 22.8672C64.4416 23.568 63.6256 23.9184 62.5696 23.9184ZM85.768 31.6368C84.4336 32.8464 82.4704 33.4512 79.8784 33.4512C77.5744 33.4512 75.5584 33 73.8304 32.0976L74.4928 28.872C75.3568 29.3136 76.2304 29.64 77.1136 29.8512C77.9968 30.0624 78.8704 30.168 79.7344 30.168C80.9824 30.168 81.9136 29.88 82.528 29.304L82.655 29.1759C83.1847 28.6003 83.4496 27.7598 83.4496 26.6544L83.449 24.102L83.4302 24.1329C83.2374 24.426 83.0039 24.7097 82.7296 24.984C82.2496 25.464 81.6688 25.8528 80.9872 26.1504C80.3056 26.448 79.5712 26.5968 78.784 26.5968C77.5168 26.5968 76.3936 26.2944 75.4144 25.6896C74.4352 25.0848 73.6672 24.2352 73.1104 23.1408C72.5536 22.0464 72.2752 20.7696 72.2752 19.3104C72.2752 17.8512 72.5536 16.5792 73.1104 15.4944C73.6672 14.4096 74.4352 13.56 75.4144 12.9456C76.3936 12.3312 77.5168 12.024 78.784 12.024C79.9744 12.024 81.0256 12.3168 81.9376 12.9024L82.1595 13.0527C82.663 13.4125 83.0669 13.836 83.3712 14.3232L83.449 14.457L83.4496 12.3984H87.7696V26.3088C87.7696 28.6512 87.1024 30.4272 85.768 31.6368ZM80.0512 23.2848C78.9952 23.2848 78.1552 22.9296 77.5312 22.2192C76.9072 21.5088 76.5952 20.5392 76.5952 19.3104C76.5952 18.0816 76.9024 17.1168 77.5168 16.416C78.1312 15.7152 78.976 15.3648 80.0512 15.3648C81.1264 15.3648 81.9616 15.72 82.5568 16.4304C83.152 17.1408 83.4496 18.1008 83.4496 19.3104C83.4496 20.5584 83.1472 21.5328 82.5424 22.2336C81.9376 22.9344 81.1072 23.2848 80.0512 23.2848ZM102.256 26.3088C101.104 26.9232 99.76 27.2304 98.224 27.2304C96.6496 27.2304 95.2864 26.9232 94.1344 26.3088C92.9824 25.6944 92.0944 24.816 91.4704 23.6736C90.8464 22.5312 90.5344 21.1824 90.5344 19.6272C90.5344 18.072 90.8464 16.728 91.4704 15.5952C92.0944 14.4624 92.9824 13.584 94.1344 12.96C95.2864 12.336 96.6496 12.024 98.224 12.024C99.76 12.024 101.104 12.336 102.256 12.96C103.408 13.584 104.296 14.4624 104.92 15.5952C105.544 16.728 105.856 18.072 105.856 19.6272C105.856 21.1824 105.544 22.5312 104.92 23.6736C104.296 24.816 103.408 25.6944 102.256 26.3088ZM98.224 23.9184C97.1296 23.9184 96.2944 23.568 95.7184 22.8672C95.1424 22.1664 94.8544 21.0864 94.8544 19.6272C94.8544 18.1872 95.1472 17.1168 95.7328 16.416C96.3184 15.7152 97.1488 15.3648 98.224 15.3648C99.28 15.3648 100.096 15.7152 100.672 16.416C101.248 17.1168 101.536 18.1872 101.536 19.6272C101.536 21.0864 101.248 22.1664 100.672 22.8672C100.096 23.568 99.28 23.9184 98.224 23.9184ZM112.998 27V12.3984H108.65V27H112.998ZM120.889 24.88L120.89 33.2208H116.541V16.5744C116.541 15.8832 116.526 15.1872 116.498 14.4864C116.469 13.7856 116.406 13.0896 116.31 12.3984H120.4L120.676 14.861L120.722 14.748C121.059 13.988 121.6 13.368 122.344 12.888C123.237 12.312 124.278 12.024 125.469 12.024C126.736 12.024 127.854 12.3456 128.824 12.9888C129.794 13.632 130.557 14.5344 131.114 15.696C131.67 16.8576 131.949 18.1968 131.949 19.7136C131.949 21.2304 131.67 22.5552 131.114 23.688C130.557 24.8208 129.794 25.6944 128.824 26.3088C127.854 26.9232 126.736 27.2304 125.469 27.2304C124.278 27.2304 123.237 26.952 122.344 26.3952L122.127 26.2514C121.635 25.9051 121.242 25.4837 120.949 24.9872L120.889 24.88ZM124.23 23.9184C123.136 23.9184 122.301 23.5536 121.725 22.824C121.149 22.0944 120.861 21.0384 120.861 19.656C120.861 18.2736 121.149 17.2128 121.725 16.4736C122.301 15.7344 123.136 15.3648 124.23 15.3648C125.286 15.3648 126.107 15.7488 126.693 16.5168C127.278 17.2848 127.571 18.3504 127.571 19.7136C127.571 21.0768 127.283 22.1184 126.707 22.8384C126.131 23.5584 125.306 23.9184 124.23 23.9184ZM144.923 26.0208C143.819 26.8272 142.298 27.2304 140.358 27.2304C137.574 27.2304 135.376 26.6352 133.763 25.4448L134.944 22.4208C135.712 22.9776 136.571 23.4048 137.522 23.7024C138.472 24 139.427 24.1488 140.387 24.1488C141.136 24.1488 141.712 24.0288 142.115 23.7888C142.518 23.5488 142.72 23.2176 142.72 22.7952C142.72 22.4304 142.576 22.1472 142.288 21.9456C142 21.744 141.491 21.5568 140.762 21.384L138.371 20.808C136.95 20.52 135.909 20.04 135.246 19.368C134.584 18.696 134.253 17.8032 134.253 16.6896C134.253 15.7872 134.517 14.9856 135.045 14.2848C135.573 13.584 136.307 13.032 137.248 12.6288C138.189 12.2256 139.283 12.024 140.531 12.024C141.587 12.024 142.605 12.1824 143.584 12.4992C144.563 12.816 145.456 13.2624 146.262 13.8384L145.053 16.7472C144.304 16.2288 143.541 15.8352 142.763 15.5664C141.986 15.2976 141.232 15.1632 140.502 15.1632C139.792 15.1632 139.235 15.288 138.832 15.5376C138.429 15.7872 138.227 16.1328 138.227 16.5744C138.227 16.9008 138.347 17.16 138.587 17.352C138.827 17.544 139.254 17.7168 139.869 17.8704L142.317 18.4176C143.814 18.7632 144.899 19.2816 145.571 19.9728C146.243 20.664 146.579 21.5856 146.579 22.7376C146.579 24.12 146.027 25.2144 144.923 26.0208ZM154.614 27.2304C155.709 27.2304 156.664 26.9664 157.48 26.4384C158.073 26.0544 158.563 25.5409 158.948 24.898L158.963 24.871L158.963 27H163.197V12.3984H158.819V20.4624C158.819 21.48 158.541 22.296 157.984 22.9104C157.427 23.5248 156.707 23.832 155.824 23.832C155.037 23.832 154.456 23.616 154.082 23.184C153.707 22.752 153.52 22.0848 153.52 21.1824V12.3984H149.171V21.096C149.171 23.1504 149.622 24.6864 150.525 25.704C151.427 26.7216 152.79 27.2304 154.614 27.2304ZM171.059 18.9648V27H166.71V16.5744C166.71 15.8832 166.696 15.1872 166.667 14.4864C166.638 13.7856 166.576 13.0896 166.48 12.3984H170.57L170.815 14.613L170.948 14.3814C171.327 13.755 171.82 13.2428 172.427 12.8448C173.262 12.2976 174.266 12.024 175.437 12.024C176.762 12.024 177.813 12.3648 178.59 13.0464L178.753 13.1978C179.123 13.5637 179.427 14.0171 179.665 14.5581L179.745 14.755L179.841 14.5908C180.248 13.9408 180.786 13.3924 181.456 12.9456C182.378 12.3312 183.424 12.024 184.595 12.024C186.266 12.024 187.504 12.5328 188.31 13.5504C189.117 14.568 189.52 16.104 189.52 18.1584V27H185.171V18.3024C185.171 17.304 185.008 16.5744 184.682 16.1136C184.355 15.6528 183.818 15.4224 183.069 15.4224C182.205 15.4224 181.523 15.7344 181.024 16.3584C180.525 16.9824 180.275 17.8512 180.275 18.9648V27H175.926V18.3024C175.926 17.304 175.763 16.5744 175.437 16.1136C175.11 15.6528 174.582 15.4224 173.853 15.4224C172.97 15.4224 172.283 15.7344 171.794 16.3584C171.304 16.9824 171.059 17.8512 171.059 18.9648Z" fill="#D8D8D8"/>
<path d="M0 0.400024V2.80002H28V0.400024H0Z" fill="#D8D8D8"/>
<path d="M0 5.20001V7.60001H28V5.20001H0Z" fill="#D8D8D8"/>
<path d="M0 10V12.4H28V10H0Z" fill="#D8D8D8"/>
<path d="M0 14.8V17.2H28V14.8H0Z" fill="#D8D8D8"/>
<path d="M0 19.6V22H28V19.6H0Z" fill="#D8D8D8"/>
<path d="M0 24.4V26.8H28V24.4H0Z" fill="#D8D8D8"/>
<path d="M0 29.2V31.6H28V29.2H0Z" fill="#D8D8D8"/>
</svg>
