<svg width="188" height="38" viewBox="0 0 188 38" fill="none" xmlns="http://www.w3.org/2000/svg">
<path fill-rule="evenodd" clip-rule="evenodd" d="M115.218 12.9608C114.887 13.1 114.534 13.1696 114.16 13.1696C113.795 13.1696 113.454 13.1 113.138 12.9608C112.821 12.8216 112.54 12.6344 112.295 12.3992C112.05 12.164 111.858 11.8904 111.719 11.5784C111.58 11.2664 111.51 10.9328 111.51 10.5776C111.51 10.2128 111.58 9.87199 111.719 9.55519C111.858 9.23839 112.05 8.95999 112.295 8.71999C112.54 8.47999 112.821 8.29279 113.138 8.15839C113.454 8.02399 113.795 7.95679 114.16 7.95679C114.534 7.95679 114.887 8.02399 115.218 8.15839C115.55 8.29279 115.84 8.47999 116.09 8.71999C116.339 8.95999 116.536 9.23839 116.68 9.55519C116.824 9.87199 116.896 10.2128 116.896 10.5776C116.896 10.9328 116.824 11.2664 116.68 11.5784C116.536 11.8904 116.339 12.164 116.09 12.3992C115.84 12.6344 115.55 12.8216 115.218 12.9608ZM61.5712 29.6V25.712H53.7952V8.61919H48.928V29.6H61.5712ZM69.952 29.8304C71.0848 29.8304 72.1168 29.6504 73.048 29.2904C73.9792 28.9304 74.7784 28.4168 75.4456 27.7496C76.1128 27.0824 76.6312 26.2712 77.0008 25.316C77.3704 24.3608 77.5552 23.288 77.5552 22.0976C77.5552 20.9168 77.3704 19.8536 77.0008 18.908C76.6312 17.9624 76.1128 17.1584 75.4456 16.496C74.7784 15.8336 73.9792 15.3248 73.048 14.9696C72.1168 14.6144 71.0848 14.4368 69.952 14.4368C68.8096 14.4368 67.7704 14.6144 66.8344 14.9696C65.8984 15.3248 65.092 15.8336 64.4152 16.496C63.7384 17.1584 63.2152 17.9624 62.8456 18.908C62.476 19.8536 62.2912 20.9168 62.2912 22.0976C62.2912 23.288 62.476 24.3608 62.8456 25.316C63.2152 26.2712 63.7384 27.0824 64.4152 27.7496C65.092 28.4168 65.8984 28.9304 66.8344 29.2904C67.7704 29.6504 68.8096 29.8304 69.952 29.8304ZM67.6336 25.4312C68.1232 26.156 68.896 26.5184 69.952 26.5184C70.9792 26.5184 71.7352 26.156 72.22 25.4312C72.7048 24.7064 72.9472 23.6048 72.9472 22.1264C72.9472 20.648 72.7048 19.5488 72.22 18.8288C71.7352 18.1088 70.9792 17.7488 69.952 17.7488C68.896 17.7488 68.1232 18.1088 67.6336 18.8288C67.144 19.5488 66.8992 20.648 66.8992 22.1264C66.8992 23.6048 67.144 24.7064 67.6336 25.4312ZM85.2736 34.7408C86.464 34.7408 87.52 34.5896 88.4416 34.2872C89.3632 33.9848 90.1408 33.584 90.7744 33.0848C91.408 32.5856 91.888 32.0144 92.2144 31.3712C92.5408 30.728 92.704 30.0704 92.704 29.3984C92.704 28.6784 92.572 28.0856 92.308 27.62C92.044 27.1544 91.696 26.7824 91.264 26.504C90.832 26.2256 90.3376 26.024 89.7808 25.8992C89.224 25.7744 88.6576 25.6856 88.0816 25.6328C87.5056 25.58 86.9392 25.5464 86.3824 25.532C85.8256 25.5176 85.3312 25.4888 84.8992 25.4456C84.4672 25.4024 84.1192 25.3256 83.8552 25.2152C83.5912 25.1048 83.4592 24.9248 83.4592 24.6752C83.4592 24.4256 83.6224 24.2048 83.9488 24.0128C84.3616 24.0704 84.8032 24.0992 85.2736 24.0992C86.1184 24.0992 86.9104 23.9864 87.6496 23.7608C88.3888 23.5352 89.0296 23.2136 89.572 22.796C90.1144 22.3784 90.5416 21.872 90.8536 21.2768C91.1656 20.6816 91.3216 20.0096 91.3216 19.2608C91.3216 18.8 91.2544 18.3536 91.12 17.9216L92.2144 17.6768C92.5504 17.6 92.788 17.4896 92.9272 17.3456C93.0664 17.2016 93.136 17.0048 93.136 16.7552V15.128H88.6288C88.1488 14.8976 87.628 14.72 87.0664 14.5952C86.5048 14.4704 85.9072 14.408 85.2736 14.408C84.4 14.408 83.5888 14.5208 82.84 14.7464C82.0912 14.972 81.4408 15.2936 80.8888 15.7112C80.3368 16.1288 79.9024 16.6376 79.5856 17.2376C79.2688 17.8376 79.1104 18.512 79.1104 19.2608C79.1104 20.1632 79.3336 20.9552 79.78 21.6368C80.2264 22.3184 80.8384 22.8656 81.616 23.2784C81.2704 23.4416 80.9728 23.6288 80.7232 23.84C80.4736 24.0512 80.2672 24.272 80.104 24.5024C79.9408 24.7328 79.8208 24.9704 79.744 25.2152C79.6672 25.46 79.6288 25.6928 79.6288 25.9136C79.6288 26.4416 79.7296 26.8784 79.9312 27.224C80.1328 27.5696 80.4016 27.8528 80.7376 28.0736C80.0368 28.3328 79.4848 28.6904 79.0816 29.1464C78.6784 29.6024 78.4768 30.1616 78.4768 30.824C78.4768 31.3328 78.6112 31.8224 78.88 32.2928C79.1488 32.7632 79.564 33.1784 80.1256 33.5384C80.6872 33.8984 81.3928 34.1888 82.2424 34.4096C83.092 34.6304 84.1024 34.7408 85.2736 34.7408ZM84.3304 21.1976C84.5944 21.2984 84.9088 21.3488 85.2736 21.3488C86.0128 21.3488 86.548 21.164 86.8792 20.7944C87.2104 20.4248 87.376 19.9472 87.376 19.3616C87.376 18.7568 87.2104 18.2816 86.8792 17.936C86.548 17.5904 86.0128 17.4176 85.2736 17.4176C84.5344 17.4176 83.9992 17.5904 83.668 17.936C83.3368 18.2816 83.1712 18.7568 83.1712 19.3616C83.1712 19.6496 83.212 19.9136 83.2936 20.1536C83.3752 20.3936 83.5024 20.6024 83.6752 20.78C83.848 20.9576 84.0664 21.0968 84.3304 21.1976ZM85.36 31.6736C84.7648 31.6736 84.2728 31.6376 83.884 31.5656C83.4952 31.4936 83.1856 31.3952 82.9552 31.2704C82.7248 31.1456 82.564 30.9968 82.4728 30.824C82.3816 30.6512 82.336 30.4592 82.336 30.248C82.336 29.9504 82.4248 29.684 82.6024 29.4488C82.78 29.2136 83.008 29 83.2864 28.808C83.6992 28.856 84.1168 28.8872 84.5392 28.9016C84.9616 28.916 85.3696 28.9328 85.7632 28.952C86.1568 28.9712 86.524 29 86.8648 29.0384C87.2056 29.0768 87.5032 29.1392 87.7576 29.2256C88.012 29.312 88.2136 29.4272 88.3624 29.5712C88.5112 29.7152 88.5856 29.9072 88.5856 30.1472C88.5856 30.368 88.5376 30.572 88.4416 30.7592C88.3456 30.9464 88.1752 31.1072 87.9304 31.2416C87.6856 31.376 87.3568 31.4816 86.944 31.5584C86.5312 31.6352 86.0032 31.6736 85.36 31.6736ZM104.814 29.2904C103.883 29.6504 102.851 29.8304 101.718 29.8304C100.576 29.8304 99.5368 29.6504 98.6008 29.2904C97.6648 28.9304 96.8584 28.4168 96.1816 27.7496C95.5048 27.0824 94.9816 26.2712 94.612 25.316C94.2424 24.3608 94.0576 23.288 94.0576 22.0976C94.0576 20.9168 94.2424 19.8536 94.612 18.908C94.9816 17.9624 95.5048 17.1584 96.1816 16.496C96.8584 15.8336 97.6648 15.3248 98.6008 14.9696C99.5368 14.6144 100.576 14.4368 101.718 14.4368C102.851 14.4368 103.883 14.6144 104.814 14.9696C105.746 15.3248 106.545 15.8336 107.212 16.496C107.879 17.1584 108.398 17.9624 108.767 18.908C109.137 19.8536 109.322 20.9168 109.322 22.0976C109.322 23.288 109.137 24.3608 108.767 25.316C108.398 26.2712 107.879 27.0824 107.212 27.7496C106.545 28.4168 105.746 28.9304 104.814 29.2904ZM101.718 26.5184C100.662 26.5184 99.8896 26.156 99.4 25.4312C98.9104 24.7064 98.6656 23.6048 98.6656 22.1264C98.6656 20.648 98.9104 19.5488 99.4 18.8288C99.8896 18.1088 100.662 17.7488 101.718 17.7488C102.746 17.7488 103.502 18.1088 103.986 18.8288C104.471 19.5488 104.714 20.648 104.714 22.1264C104.714 23.6048 104.471 24.7064 103.986 25.4312C103.502 26.156 102.746 26.5184 101.718 26.5184ZM116.378 29.6V14.6672H111.914V29.6H116.378ZM124.442 28.6064V34.3376H119.978V14.6672H122.742C123.021 14.6672 123.254 14.7296 123.441 14.8544C123.628 14.9792 123.76 15.1664 123.837 15.416L124.168 16.5104C124.456 16.1936 124.766 15.9056 125.097 15.6464C125.428 15.3872 125.783 15.164 126.162 14.9768C126.542 14.7896 126.95 14.6432 127.386 14.5376C127.823 14.432 128.301 14.3792 128.819 14.3792C129.597 14.3792 130.317 14.552 130.979 14.8976C131.642 15.2432 132.213 15.7424 132.693 16.3952C133.173 17.048 133.55 17.8472 133.823 18.7928C134.097 19.7384 134.234 20.8112 134.234 22.0112C134.234 23.1344 134.078 24.1712 133.766 25.1216C133.454 26.072 133.017 26.8976 132.455 27.5984C131.894 28.2992 131.222 28.8464 130.439 29.24C129.657 29.6336 128.79 29.8304 127.84 29.8304C127.062 29.8304 126.41 29.72 125.882 29.4992C125.354 29.2784 124.874 28.9808 124.442 28.6064ZM126.774 26.5472C126.342 26.5472 125.93 26.4728 125.536 26.324C125.142 26.1752 124.778 25.9136 124.442 25.5392V19.2032C124.634 18.9728 124.826 18.7688 125.018 18.5912C125.21 18.4136 125.418 18.2672 125.644 18.152C125.87 18.0368 126.114 17.948 126.378 17.8856C126.642 17.8232 126.938 17.792 127.264 17.792C127.619 17.792 127.941 17.864 128.229 18.008C128.517 18.152 128.764 18.3896 128.97 18.7208C129.177 19.052 129.338 19.4864 129.453 20.024C129.568 20.5616 129.626 21.224 129.626 22.0112C129.626 22.8368 129.554 23.5376 129.41 24.1136C129.266 24.6896 129.066 25.1576 128.812 25.5176C128.558 25.8776 128.258 26.1392 127.912 26.3024C127.566 26.4656 127.187 26.5472 126.774 26.5472ZM143.27 29.456C142.487 29.7056 141.587 29.8304 140.57 29.8304C140.061 29.8304 139.552 29.7824 139.043 29.6864C138.534 29.5904 138.042 29.4608 137.567 29.2976C137.092 29.1344 136.653 28.94 136.25 28.7144C135.846 28.4888 135.501 28.2464 135.213 27.9872L136.25 26.3456C136.374 26.1536 136.523 26.0024 136.696 25.892C136.869 25.7816 137.094 25.7264 137.373 25.7264C137.632 25.7264 137.865 25.784 138.071 25.8992C138.278 26.0144 138.501 26.1392 138.741 26.2736C138.981 26.408 139.262 26.5328 139.583 26.648C139.905 26.7632 140.31 26.8208 140.8 26.8208C141.146 26.8208 141.438 26.7848 141.678 26.7128C141.918 26.6408 142.11 26.5424 142.254 26.4176C142.398 26.2928 142.504 26.1536 142.571 26C142.638 25.8464 142.672 25.688 142.672 25.5248C142.672 25.2272 142.571 24.9824 142.37 24.7904C142.168 24.5984 141.904 24.4328 141.578 24.2936C141.251 24.1544 140.879 24.0248 140.462 23.9048C140.044 23.7848 139.619 23.648 139.187 23.4944C138.755 23.3408 138.33 23.156 137.913 22.94C137.495 22.724 137.123 22.4504 136.797 22.1192C136.47 21.788 136.206 21.3824 136.005 20.9024C135.803 20.4224 135.702 19.8416 135.702 19.16C135.702 18.5264 135.825 17.924 136.07 17.3528C136.314 16.7816 136.682 16.28 137.171 15.848C137.661 15.416 138.275 15.0728 139.014 14.8184C139.754 14.564 140.618 14.4368 141.606 14.4368C142.144 14.4368 142.665 14.4848 143.169 14.5808C143.673 14.6768 144.146 14.8112 144.587 14.984C145.029 15.1568 145.432 15.3608 145.797 15.596C146.162 15.8312 146.483 16.088 146.762 16.3664L145.754 17.936C145.638 18.1184 145.516 18.248 145.386 18.3248C145.257 18.4016 145.091 18.44 144.89 18.44C144.678 18.44 144.467 18.3944 144.256 18.3032L143.572 18.008C143.327 17.9024 143.051 17.804 142.744 17.7128C142.437 17.6216 142.086 17.576 141.693 17.576C141.126 17.576 140.692 17.684 140.39 17.9C140.087 18.116 139.936 18.416 139.936 18.8C139.936 19.0784 140.034 19.3088 140.231 19.4912C140.428 19.6736 140.69 19.8344 141.016 19.9736C141.342 20.1128 141.712 20.2448 142.125 20.3696C142.538 20.4944 142.96 20.6336 143.392 20.7872C143.824 20.9408 144.246 21.1208 144.659 21.3272C145.072 21.5336 145.442 21.788 145.768 22.0904C146.094 22.3928 146.356 22.76 146.553 23.192C146.75 23.624 146.848 24.1424 146.848 24.7472C146.848 25.4864 146.714 26.168 146.445 26.792C146.176 27.416 145.775 27.9536 145.242 28.4048C144.71 28.856 144.052 29.2064 143.27 29.456ZM154.077 29.8304C154.557 29.8304 154.998 29.7848 155.402 29.6936C155.805 29.6024 156.182 29.4776 156.532 29.3192C156.882 29.1608 157.211 28.9688 157.518 28.7432C157.826 28.5176 158.123 28.2656 158.411 27.9872L158.685 28.8512C158.858 29.3504 159.222 29.6 159.779 29.6H162.544V14.6672H158.08V25.3088C157.677 25.6736 157.262 25.9568 156.834 26.1584C156.407 26.36 155.949 26.4608 155.459 26.4608C154.806 26.4608 154.312 26.2592 153.976 25.856C153.64 25.4528 153.472 24.8816 153.472 24.1424V14.6672H149.008V24.1424C149.008 24.968 149.118 25.7264 149.339 26.4176C149.56 27.1088 149.886 27.7088 150.318 28.2176C150.75 28.7264 151.281 29.1224 151.91 29.4056C152.538 29.6888 153.261 29.8304 154.077 29.8304ZM170.464 18.8V29.6H166V14.6672H168.765C169.043 14.6672 169.276 14.7296 169.463 14.8544C169.65 14.9792 169.782 15.1664 169.859 15.416L170.104 16.2224C170.354 15.9632 170.613 15.7256 170.882 15.5096C171.15 15.2936 171.441 15.1064 171.753 14.948C172.065 14.7896 172.401 14.6648 172.761 14.5736C173.121 14.4824 173.517 14.4368 173.949 14.4368C174.851 14.4368 175.598 14.6696 176.188 15.1352C176.778 15.6008 177.227 16.2224 177.534 17C177.784 16.5392 178.089 16.1456 178.449 15.8192C178.809 15.4928 179.198 15.2288 179.615 15.0272C180.033 14.8256 180.474 14.6768 180.94 14.5808C181.406 14.4848 181.869 14.4368 182.33 14.4368C183.184 14.4368 183.942 14.564 184.605 14.8184C185.267 15.0728 185.822 15.4424 186.268 15.9272C186.714 16.412 187.053 17.0072 187.283 17.7128C187.514 18.4184 187.629 19.2176 187.629 20.1104V29.6H183.165V20.1104C183.165 18.5648 182.502 17.792 181.178 17.792C180.573 17.792 180.071 17.9912 179.673 18.3896C179.274 18.788 179.075 19.3616 179.075 20.1104V29.6H174.611V20.1104C174.611 19.256 174.443 18.656 174.107 18.3104C173.771 17.9648 173.277 17.792 172.624 17.792C172.221 17.792 171.839 17.8832 171.479 18.0656C171.119 18.248 170.781 18.4928 170.464 18.8Z" fill="#D8D8D8"/>
<rect width="37.6" height="37.6" rx="5.6" fill="#D8D8D8"/>
<path fill-rule="evenodd" clip-rule="evenodd" d="M19.2 26.8L10.2657 31.4971L11.972 21.5485L4.74394 14.5029L14.7328 13.0515L19.2 4L23.6672 13.0515L33.6561 14.5029L26.428 21.5485L28.1343 31.4971L19.2 26.8Z" fill="white"/>
</svg>
