<svg width="230" height="42" viewBox="0 0 230 42" fill="none" xmlns="http://www.w3.org/2000/svg">
<path fill-rule="evenodd" clip-rule="evenodd" d="M131.869 13.8624C132.867 13.8624 133.674 13.5792 134.288 13.0128C134.902 12.4464 135.21 11.7312 135.21 10.8672C135.21 10.0416 134.902 9.3648 134.288 8.8368C133.674 8.3088 132.867 8.0448 131.869 8.0448C130.87 8.0448 130.064 8.3232 129.45 8.88C128.835 9.4368 128.528 10.128 128.528 10.9536C128.528 11.7792 128.835 12.4704 129.45 13.0272C130.064 13.584 130.87 13.8624 131.869 13.8624ZM68.5376 31.2V26.6784H58.9184V11.04H53.216V31.2H68.5376ZM78.3008 31.4592C79.9904 31.4592 81.5072 31.1136 82.8512 30.4224C84.1952 29.7312 85.2416 28.7712 85.9904 27.5424C86.7392 26.3136 87.1136 24.9216 87.1136 23.3664C87.1136 21.8112 86.7392 20.424 85.9904 19.2048C85.2416 17.9856 84.1952 17.0352 82.8512 16.3536C81.5072 15.672 79.9904 15.3312 78.3008 15.3312C76.6112 15.3312 75.0992 15.672 73.7648 16.3536C72.4304 17.0352 71.384 17.9904 70.6256 19.2192C69.8672 20.448 69.488 21.8304 69.488 23.3664C69.488 24.9216 69.8672 26.3136 70.6256 27.5424C71.384 28.7712 72.4352 29.7312 73.7792 30.4224C75.1232 31.1136 76.6304 31.4592 78.3008 31.4592ZM75.9392 26.1168C76.5536 26.7792 77.3408 27.1104 78.3008 27.1104C79.2608 27.1104 80.048 26.7792 80.6624 26.1168C81.2768 25.4544 81.584 24.5376 81.584 23.3664C81.584 22.2144 81.2768 21.312 80.6624 20.6592C80.048 20.0064 79.2608 19.68 78.3008 19.68C77.3408 19.68 76.5536 20.0064 75.9392 20.6592C75.3248 21.312 75.0176 22.2144 75.0176 23.3664C75.0176 24.5376 75.3248 25.4544 75.9392 26.1168ZM97.28 37.0464C100.237 37.0464 102.502 36.3216 104.077 34.872C105.651 33.4224 106.438 31.248 106.438 28.3488V15.5904H101.226V17.4912C100.189 16.0512 98.5568 15.3312 96.3296 15.3312C94.9472 15.3312 93.6704 15.6432 92.4992 16.2672C91.328 16.8912 90.3968 17.7744 89.7056 18.9168C89.0144 20.0592 88.6688 21.3696 88.6688 22.848C88.6688 24.3456 89.0144 25.6656 89.7056 26.808C90.3968 27.9504 91.328 28.8336 92.4992 29.4576C93.6704 30.0816 94.9472 30.3936 96.3296 30.3936C98.3648 30.3936 99.9104 29.7792 100.966 28.5504V29.0688C100.966 30.3168 100.63 31.2576 99.9584 31.8912C99.2864 32.5248 98.2304 32.8416 96.7904 32.8416C95.8496 32.8416 94.8944 32.6928 93.9248 32.3952C92.9552 32.0976 92.1536 31.6896 91.52 31.1712L89.5328 35.0016C90.4736 35.6736 91.616 36.1824 92.96 36.528C94.304 36.8736 95.744 37.0464 97.28 37.0464ZM95.1776 25.152C95.8304 25.7472 96.6464 26.0448 97.6256 26.0448C98.6048 26.0448 99.416 25.7472 100.059 25.152C100.702 24.5568 101.024 23.7888 101.024 22.848C101.024 21.9072 100.707 21.144 100.074 20.5584C99.44 19.9728 98.624 19.68 97.6256 19.68C96.6272 19.68 95.8064 19.9728 95.1632 20.5584C94.52 21.144 94.1984 21.9072 94.1984 22.848C94.1984 23.7888 94.5248 24.5568 95.1776 25.152ZM117.786 31.4592C119.475 31.4592 120.992 31.1136 122.336 30.4224C123.68 29.7312 124.726 28.7712 125.475 27.5424C126.224 26.3136 126.598 24.9216 126.598 23.3664C126.598 21.8112 126.224 20.424 125.475 19.2048C124.726 17.9856 123.68 17.0352 122.336 16.3536C120.992 15.672 119.475 15.3312 117.786 15.3312C116.096 15.3312 114.584 15.672 113.25 16.3536C111.915 17.0352 110.869 17.9904 110.11 19.2192C109.352 20.448 108.973 21.8304 108.973 23.3664C108.973 24.9216 109.352 26.3136 110.11 27.5424C110.869 28.7712 111.92 29.7312 113.264 30.4224C114.608 31.1136 116.115 31.4592 117.786 31.4592ZM115.424 26.1168C116.038 26.7792 116.826 27.1104 117.786 27.1104C118.746 27.1104 119.533 26.7792 120.147 26.1168C120.762 25.4544 121.069 24.5376 121.069 23.3664C121.069 22.2144 120.762 21.312 120.147 20.6592C119.533 20.0064 118.746 19.68 117.786 19.68C116.826 19.68 116.038 20.0064 115.424 20.6592C114.81 21.312 114.502 22.2144 114.502 23.3664C114.502 24.5376 114.81 25.4544 115.424 26.1168ZM134.605 15.5904V31.2H129.133V15.5904H134.605ZM143.619 36.7872V29.8176C144.694 30.912 146.144 31.4592 147.968 31.4592C149.389 31.4592 150.68 31.128 151.842 30.4656C153.003 29.8032 153.925 28.8624 154.606 27.6432C155.288 26.424 155.629 25.008 155.629 23.3952C155.629 21.7824 155.288 20.3664 154.606 19.1472C153.925 17.928 153.003 16.9872 151.842 16.3248C150.68 15.6624 149.389 15.3312 147.968 15.3312C145.914 15.3312 144.378 15.936 143.36 17.1456V15.5904H138.147V36.7872H143.619ZM144.454 26.1168C145.069 26.7792 145.856 27.1104 146.816 27.1104C147.776 27.1104 148.563 26.7792 149.178 26.1168C149.792 25.4544 150.099 24.5472 150.099 23.3952C150.099 22.2432 149.792 21.336 149.178 20.6736C148.563 20.0112 147.776 19.68 146.816 19.68C145.856 19.68 145.069 20.0112 144.454 20.6736C143.84 21.336 143.533 22.2432 143.533 23.3952C143.533 24.5472 143.84 25.4544 144.454 26.1168ZM163.837 31.4592C165.469 31.4592 166.866 31.2384 168.027 30.7968C169.189 30.3552 170.067 29.7456 170.662 28.968C171.258 28.1904 171.555 27.312 171.555 26.3328C171.555 25.1424 171.243 24.216 170.619 23.5536C169.995 22.8912 169.261 22.4352 168.416 22.1856C167.571 21.936 166.506 21.7152 165.219 21.5232C164.202 21.3696 163.472 21.2208 163.03 21.0768C162.589 20.9328 162.368 20.6784 162.368 20.3136C162.368 19.9872 162.57 19.7232 162.973 19.5216C163.376 19.32 164.01 19.2192 164.874 19.2192C166.486 19.2192 167.984 19.6032 169.366 20.3712L171.008 16.656C170.259 16.2336 169.328 15.9072 168.214 15.6768C167.101 15.4464 165.978 15.3312 164.845 15.3312C163.251 15.3312 161.883 15.5568 160.741 16.008C159.598 16.4592 158.73 17.0736 158.134 17.8512C157.539 18.6288 157.242 19.5168 157.242 20.5152C157.242 21.7248 157.558 22.6656 158.192 23.3376C158.826 24.0096 159.579 24.4704 160.453 24.72C161.326 24.9696 162.387 25.1712 163.635 25.3248C164.614 25.4592 165.33 25.5984 165.781 25.7424C166.232 25.8864 166.458 26.1312 166.458 26.4768C166.458 26.8224 166.27 27.0864 165.896 27.2688C165.522 27.4512 164.893 27.5424 164.01 27.5424C163.05 27.5424 162.08 27.4128 161.101 27.1536C160.122 26.8944 159.277 26.544 158.566 26.1024L156.925 29.8464C157.693 30.3264 158.71 30.7152 159.978 31.0128C161.245 31.3104 162.531 31.4592 163.837 31.4592ZM183.046 30.9696C182.24 31.296 181.386 31.4592 180.483 31.4592C178.467 31.4592 176.859 30.864 175.659 29.6736C174.459 28.4832 173.859 26.6976 173.859 24.3168V15.5904H179.331V23.424C179.331 24.5952 179.552 25.4496 179.994 25.9872C180.435 26.5248 181.078 26.7936 181.923 26.7936C182.787 26.7936 183.493 26.4912 184.04 25.8864C184.587 25.2816 184.861 24.3552 184.861 23.1072V15.5904H190.333V31.2H185.12V29.5296C184.544 30.1632 183.853 30.6432 183.046 30.9696ZM199.318 31.2V23.4528C199.318 22.2816 199.568 21.408 200.067 20.832C200.566 20.256 201.238 19.968 202.083 19.968C203.658 19.968 204.445 21.0336 204.445 23.1648V31.2H209.917V23.4528C209.917 22.2816 210.166 21.408 210.666 20.832C211.165 20.256 211.827 19.968 212.653 19.968C213.402 19.968 213.982 20.2272 214.395 20.7456C214.808 21.264 215.014 22.0704 215.014 23.1648V31.2H220.486V22.272C220.486 19.9488 219.915 18.2112 218.773 17.0592C217.63 15.9072 216.099 15.3312 214.179 15.3312C213.066 15.3312 212.038 15.5424 211.098 15.9648C210.157 16.3872 209.379 16.992 208.765 17.7792C208.227 16.9536 207.526 16.3392 206.662 15.936C205.798 15.5328 204.819 15.3312 203.725 15.3312C202.784 15.3312 201.915 15.4896 201.118 15.8064C200.322 16.1232 199.635 16.5984 199.059 17.232V15.5904H193.846V31.2H199.318ZM228.594 30.5376C227.97 31.152 227.187 31.4592 226.246 31.4592C225.325 31.4592 224.547 31.152 223.914 30.5376C223.28 29.9232 222.963 29.1456 222.963 28.2048C222.963 27.2448 223.275 26.4672 223.899 25.872C224.523 25.2768 225.306 24.9792 226.246 24.9792C227.206 24.9792 227.994 25.2768 228.608 25.872C229.222 26.4672 229.53 27.2448 229.53 28.2048C229.53 29.1456 229.218 29.9232 228.594 30.5376Z" fill="#D8D8D8"/>
<path fill-rule="evenodd" clip-rule="evenodd" d="M20.72 0L41.44 41.44H30.8074C16.6534 41.44 7.44762 26.5448 13.7775 13.885L20.72 0Z" fill="#D8D8D8"/>
<circle cx="5.88" cy="35.56" r="5.88" fill="#D8D8D8"/>
</svg>
