<svg width="70" height="70" viewBox="0 0 70 70" fill="none" xmlns="http://www.w3.org/2000/svg">
<circle cx="35" cy="35" r="35" fill="#58BEBF" fill-opacity="0.2"/>
<path fill-rule="evenodd" clip-rule="evenodd" d="M29.4251 40.1036C29.4251 37.0534 31.9067 34.5718 34.957 34.5718C38.0073 34.5718 40.4889 37.0534 40.4889 40.1036C40.4889 43.1539 38.0073 45.6355 34.957 45.6355C31.9067 45.6355 29.4251 43.1539 29.4251 40.1036ZM31.1225 40.7647L33.8596 43.5018L38.7915 38.5699L37.5485 37.327L33.8596 41.0159L32.3654 39.5217L31.1225 40.7647Z" fill="#58BEBF"/>
<path d="M40.5768 23.4232H38.3803C38.3802 21.5326 36.8476 20 34.957 20C33.0664 20 31.5338 21.5326 31.5338 23.4232H29.3372V27.8115H40.5767V23.4232H40.5768Z" fill="#58BEBF"/>
<path fill-rule="evenodd" clip-rule="evenodd" d="M42.3346 29.5694V23.4233H45.8736V50.0001H24.0404V23.4233H27.5794V29.5694H42.3346ZM27.6673 40.1039C27.6673 44.1234 30.9374 47.3936 34.957 47.3936C38.9766 47.3936 42.2467 44.1234 42.2467 40.1039C42.2467 36.0844 38.9765 32.8142 34.957 32.8142C30.9375 32.8142 27.6673 36.0843 27.6673 40.1039Z" fill="#58BEBF"/>
</svg>
