<svg width="70" height="70" viewBox="0 0 70 70" fill="none" xmlns="http://www.w3.org/2000/svg">
<path fill-rule="evenodd" clip-rule="evenodd" d="M27.3453 24.552L24.3061 27.3064C26.4592 29.9887 29.374 32.2086 32.9494 32.9195V37.0803H37.0509V33.2026C40.956 32.9356 44.9176 29.99 45.582 26.0752C46.5093 20.7601 41.8484 17.5786 37.0509 16.1039V8.04844C39.1232 8.26309 41.4574 9.92354 43.1428 11.3681L45.6873 8.15111C43.3295 5.96211 39.4961 3.97654 37.0508 3.91256V0.00732422H32.9492V4.1432C29.7258 4.83363 27.0752 7.39465 26.6444 10.536C26.2523 15.0449 28.3589 17.2827 32.9492 18.8772V28.6894C29.3537 27.722 27.3453 24.552 27.3453 24.552ZM30.7013 11.1398C30.8798 9.93981 31.7063 8.96008 32.9492 8.43891V14.4279C30.6511 13.6765 30.533 12.2695 30.7013 11.1398ZM37.0508 29.0771C39.6106 28.7075 41.5442 27.0117 41.5442 25.3542C41.5442 22.0086 37.5377 20.6588 37.0876 20.5071C37.0692 20.5009 37.0568 20.4967 37.0508 20.4945V29.0771Z" fill="white"/>
<path fill-rule="evenodd" clip-rule="evenodd" d="M62.9394 56.477V48.9702L63.8468 49.5146L65.9572 45.9975L51.4746 37.3081L36.992 45.9977L39.1024 49.5148L40.0098 48.9704V56.4772H29.9904V48.9704L30.8978 49.5148L33.0081 45.9977L18.5254 37.3081L4.04277 45.9977L6.15316 49.5148L7.06057 48.9704V56.4772H0V60.5787H70V56.4772H62.9394V56.477ZM20.5762 56.477V51.4672H16.4746V56.477H11.1621V46.5093L18.5254 42.0912L25.8887 46.5093V56.477H20.5762ZM53.5254 51.4672V56.477H58.8379V46.5093L51.4746 42.0912L44.1113 46.5093V56.477H49.4238V51.4672H53.5254Z" fill="white"/>
<path d="M0 65.8911H70V69.9927H0V65.8911Z" fill="white"/>
</svg>
