<svg width="71" height="70" viewBox="0 0 71 70" fill="none" xmlns="http://www.w3.org/2000/svg">
<circle cx="35.5" cy="35" r="35" fill="#F78434"/>
<path d="M39.75 20H46.5V27.5H39.75V20Z" fill="white"/>
<path d="M24 20H30.75V27.5H24V20Z" fill="white"/>
<ellipse cx="35.625" cy="41" rx="4.125" ry="3.75" fill="white"/>
<path fill-rule="evenodd" clip-rule="evenodd" d="M26.25 41.375C26.25 36.6116 30.2794 32.75 35.25 32.75C40.2206 32.75 44.25 36.6116 44.25 41.375C44.25 46.1384 40.2206 50 35.25 50C30.2794 50 26.25 46.1384 26.25 41.375ZM29.3931 41.375C29.3931 44.4699 32.0205 46.9878 35.25 46.9878C38.4795 46.9878 41.1069 44.4699 41.1069 41.375C41.1069 38.2801 38.4795 35.7622 35.25 35.7622C32.0205 35.7622 29.3931 38.28 29.3931 41.375Z" fill="white"/>
<path d="M31.3477 31.3905C32.1222 31.0495 32.9259 30.8114 33.75 30.6768L32.1394 29H25.5L29.1021 32.75C29.791 32.2009 30.5421 31.7453 31.3477 31.3905Z" fill="white"/>
<path d="M36.75 30.6768C37.5741 30.8113 38.3778 31.0494 39.1523 31.3905C39.9579 31.7452 40.709 32.2008 41.3979 32.75L45 29H38.3606C37.9268 29.4516 37.3201 30.0832 36.75 30.6768Z" fill="white"/>
</svg>
