<svg width="168" height="44" viewBox="0 0 168 44" fill="none" xmlns="http://www.w3.org/2000/svg">
<path d="M56.168 13.864C58.328 13.864 60.112 14.432 61.52 15.568C62.944 16.704 63.864 18.24 64.28 20.176H59.936C59.616 19.392 59.12 18.776 58.448 18.328C57.792 17.88 57.008 17.656 56.096 17.656C54.896 17.656 53.928 18.096 53.192 18.976C52.456 19.856 52.088 21.032 52.088 22.504C52.088 23.976 52.456 25.152 53.192 26.032C53.928 26.896 54.896 27.328 56.096 27.328C57.008 27.328 57.792 27.104 58.448 26.656C59.12 26.208 59.616 25.6 59.936 24.832H64.28C63.864 26.752 62.944 28.288 61.52 29.44C60.112 30.576 58.328 31.144 56.168 31.144C54.52 31.144 53.072 30.784 51.824 30.064C50.576 29.328 49.608 28.304 48.92 26.992C48.248 25.68 47.912 24.184 47.912 22.504C47.912 20.824 48.248 19.328 48.92 18.016C49.608 16.704 50.576 15.688 51.824 14.968C53.072 14.232 54.52 13.864 56.168 13.864ZM79.9001 17.608V31H75.7721V28.576C75.3881 29.36 74.8121 29.984 74.0441 30.448C73.2921 30.912 72.4121 31.144 71.4041 31.144C69.8681 31.144 68.6441 30.632 67.7321 29.608C66.8361 28.584 66.3881 27.176 66.3881 25.384V17.608H70.4681V24.88C70.4681 25.792 70.7001 26.504 71.1641 27.016C71.6441 27.512 72.2841 27.76 73.0841 27.76C73.9161 27.76 74.5721 27.496 75.0521 26.968C75.5321 26.44 75.7721 25.688 75.7721 24.712V17.608H79.9001ZM90.3125 27.472V31H88.4645C86.8965 31 85.6725 30.616 84.7925 29.848C83.9285 29.064 83.4965 27.776 83.4965 25.984V21.064H81.6965V17.608H83.4965V14.32H87.6005V17.608H90.2885V21.064H87.6005V26.056C87.6005 26.584 87.7045 26.952 87.9125 27.16C88.1365 27.368 88.5045 27.472 89.0165 27.472H90.3125ZM104.811 26.224C104.811 27.12 104.579 27.944 104.115 28.696C103.667 29.448 102.995 30.048 102.099 30.496C101.219 30.944 100.147 31.168 98.8831 31.168C96.9791 31.168 95.4111 30.704 94.1791 29.776C92.9471 28.848 92.2751 27.552 92.1631 25.888H96.5311C96.5951 26.528 96.8191 27.032 97.2031 27.4C97.6031 27.768 98.1071 27.952 98.7151 27.952C99.2431 27.952 99.6591 27.808 99.9631 27.52C100.267 27.232 100.419 26.848 100.419 26.368C100.419 25.936 100.275 25.576 99.9871 25.288C99.7151 25 99.3711 24.768 98.9551 24.592C98.5391 24.4 97.9631 24.176 97.2271 23.92C96.1551 23.552 95.2751 23.2 94.5871 22.864C93.9151 22.512 93.3311 22 92.8351 21.328C92.3551 20.64 92.1151 19.752 92.1151 18.664C92.1151 17.656 92.3711 16.784 92.8831 16.048C93.3951 15.312 94.0991 14.752 94.9951 14.368C95.9071 13.968 96.9471 13.768 98.1151 13.768C100.003 13.768 101.499 14.216 102.603 15.112C103.723 16.008 104.355 17.24 104.499 18.808H100.059C99.9791 18.248 99.7711 17.808 99.4351 17.488C99.1151 17.152 98.6751 16.984 98.1151 16.984C97.6351 16.984 97.2431 17.112 96.9391 17.368C96.6511 17.624 96.5071 18 96.5071 18.496C96.5071 18.896 96.6351 19.24 96.8911 19.528C97.1631 19.8 97.4991 20.024 97.8991 20.2C98.2991 20.376 98.8751 20.6 99.6271 20.872C100.715 21.24 101.603 21.608 102.291 21.976C102.979 22.328 103.571 22.848 104.067 23.536C104.563 24.224 104.811 25.12 104.811 26.224ZM115.432 17.44C116.536 17.44 117.52 17.72 118.384 18.28C119.264 18.824 119.952 19.616 120.448 20.656C120.96 21.68 121.216 22.896 121.216 24.304C121.216 25.696 120.96 26.912 120.448 27.952C119.952 28.992 119.264 29.792 118.384 30.352C117.52 30.896 116.536 31.168 115.432 31.168C114.408 31.168 113.528 30.936 112.792 30.472C112.056 30.008 111.52 29.376 111.184 28.576V37.384H107.08V17.608H111.184V20.032C111.52 19.232 112.056 18.6 112.792 18.136C113.528 17.672 114.408 17.44 115.432 17.44ZM114.112 21.04C113.248 21.04 112.536 21.336 111.976 21.928C111.432 22.504 111.16 23.296 111.16 24.304C111.16 25.296 111.432 26.088 111.976 26.68C112.536 27.272 113.248 27.568 114.112 27.568C114.992 27.568 115.696 27.28 116.224 26.704C116.768 26.128 117.04 25.328 117.04 24.304C117.04 23.28 116.768 22.48 116.224 21.904C115.696 21.328 114.992 21.04 114.112 21.04ZM128.434 17.44C129.458 17.44 130.338 17.672 131.074 18.136C131.81 18.6 132.354 19.232 132.706 20.032V17.608H136.786V31H132.706V28.576C132.354 29.376 131.81 30.008 131.074 30.472C130.338 30.936 129.458 31.168 128.434 31.168C127.33 31.168 126.338 30.896 125.458 30.352C124.594 29.792 123.906 28.992 123.394 27.952C122.898 26.912 122.65 25.696 122.65 24.304C122.65 22.896 122.898 21.68 123.394 20.656C123.906 19.616 124.594 18.824 125.458 18.28C126.338 17.72 127.33 17.44 128.434 17.44ZM129.754 21.04C128.874 21.04 128.162 21.328 127.618 21.904C127.09 22.48 126.826 23.28 126.826 24.304C126.826 25.328 127.09 26.128 127.618 26.704C128.162 27.28 128.874 27.568 129.754 27.568C130.618 27.568 131.322 27.272 131.866 26.68C132.426 26.088 132.706 25.296 132.706 24.304C132.706 23.296 132.426 22.504 131.866 21.928C131.322 21.336 130.618 21.04 129.754 21.04ZM145.659 17.44C147.387 17.44 148.835 17.92 150.003 18.88C151.171 19.824 151.907 21.128 152.211 22.792H147.867C147.739 22.216 147.475 21.768 147.075 21.448C146.675 21.128 146.171 20.968 145.563 20.968C144.843 20.968 144.251 21.256 143.787 21.832C143.323 22.392 143.091 23.216 143.091 24.304C143.091 25.392 143.323 26.224 143.787 26.8C144.251 27.36 144.843 27.64 145.563 27.64C146.171 27.64 146.675 27.48 147.075 27.16C147.475 26.84 147.739 26.392 147.867 25.816H152.211C151.907 27.48 151.171 28.792 150.003 29.752C148.835 30.696 147.387 31.168 145.659 31.168C144.347 31.168 143.179 30.896 142.155 30.352C141.147 29.792 140.355 28.992 139.779 27.952C139.203 26.912 138.915 25.696 138.915 24.304C138.915 22.896 139.195 21.68 139.755 20.656C140.331 19.616 141.131 18.824 142.155 18.28C143.179 17.72 144.347 17.44 145.659 17.44ZM167.074 23.944C167.074 24.28 167.034 24.648 166.954 25.048H157.666C157.714 26.056 157.97 26.784 158.434 27.232C158.898 27.664 159.49 27.88 160.21 27.88C160.818 27.88 161.322 27.728 161.722 27.424C162.122 27.12 162.386 26.728 162.514 26.248H166.858C166.682 27.192 166.298 28.04 165.706 28.792C165.114 29.528 164.362 30.112 163.45 30.544C162.538 30.96 161.522 31.168 160.402 31.168C159.09 31.168 157.922 30.896 156.898 30.352C155.89 29.792 155.098 28.992 154.521 27.952C153.946 26.912 153.658 25.696 153.658 24.304C153.658 22.896 153.938 21.68 154.498 20.656C155.074 19.616 155.874 18.824 156.898 18.28C157.922 17.72 159.09 17.44 160.402 17.44C161.73 17.44 162.898 17.712 163.906 18.256C164.914 18.8 165.69 19.568 166.234 20.56C166.794 21.536 167.074 22.664 167.074 23.944ZM162.922 23.32C162.938 22.44 162.698 21.784 162.202 21.352C161.722 20.904 161.122 20.68 160.402 20.68C159.65 20.68 159.026 20.904 158.53 21.352C158.034 21.8 157.754 22.456 157.69 23.32H162.922Z" fill="#323232"/>
<path fill-rule="evenodd" clip-rule="evenodd" d="M22 22L32.5987 11.3855C26.7788 5.57421 17.209 5.57777 11.3934 11.3934C5.57477 17.212 5.57477 26.788 11.3934 32.6066C17.212 38.4252 26.788 38.4252 32.6066 32.6066L22 22Z" fill="#58BEBF"/>
</svg>
